<svg xmlns="http://www.w3.org/2000/svg" viewBox="0 0 800 500" role="img" aria-label="Conagra Brands · Production Line Scheduling">
  <rect width="800" height="500" fill="#0f172a"/>
  <g stroke="#94a3b8" stroke-width="1.25" fill="none" opacity="0.18">
    <path d="M0 100 H800 M0 200 H800 M0 300 H800 M0 400 H800"/>
    <path d="M100 0 V500 M200 0 V500 M300 0 V500 M400 0 V500 M500 0 V500 M600 0 V500 M700 0 V500"/>
  </g>
  <line x1="80" y1="290" x2="720" y2="290" stroke="#94a3b8" stroke-width="1.25"/>
  <line x1="80" y1="310" x2="720" y2="310" stroke="#94a3b8" stroke-width="1.25"/>
  <g fill="#94a3b8">
    <circle cx="120" cy="300" r="9"/>
    <circle cx="280" cy="300" r="9"/>
    <circle cx="440" cy="300" r="9"/>
    <circle cx="600" cy="300" r="9"/>
    <circle cx="720" cy="300" r="9"/>
  </g>
  <g fill="none" stroke="#e2e8f0" stroke-width="2.5">
    <rect x="160" y="170" width="80" height="100" rx="6"/>
    <rect x="320" y="190" width="80" height="80" rx="6"/>
    <rect x="480" y="160" width="80" height="110" rx="6"/>
  </g>
  <g stroke="#e2e8f0" stroke-width="2.5" fill="none" stroke-linecap="round">
    <path d="M240 220 L320 220"/>
    <path d="M400 220 L480 220"/>
  </g>
  <g stroke="#e2e8f0" stroke-width="1.5" fill="none" stroke-dasharray="4 5" stroke-linecap="round">
    <path d="M200 170 V120 L640 120 V160"/>
  </g>
  <circle cx="640" cy="120" r="7" fill="#e2e8f0"/>
  <circle cx="200" cy="170" r="4" fill="#e2e8f0"/>
  <text x="60" y="450" font-family="ui-sans-serif, system-ui, -apple-system, Segoe UI, Roboto" font-size="22" font-weight="600" letter-spacing="3" fill="#94a3b8">PRODUCTION SCHEDULING</text>
</svg>
