<svg xmlns="http://www.w3.org/2000/svg" viewBox="0 0 800 500" role="img" aria-label="Data Engineering">
  <rect width="800" height="500" fill="#0f172a"/>
  <g stroke="#94a3b8" stroke-width="1.25" fill="none" opacity="0.18">
    <path d="M0 100 H800 M0 200 H800 M0 300 H800 M0 400 H800"/>
    <path d="M100 0 V500 M200 0 V500 M300 0 V500 M400 0 V500 M500 0 V500 M600 0 V500 M700 0 V500"/>
  </g>
  <g stroke="#e2e8f0" stroke-width="2.5" fill="none">
    <ellipse cx="280" cy="170" rx="70" ry="22"/>
    <path d="M210 170 V250 a70 22 0 0 0 140 0 V170"/>
    <path d="M210 210 a70 22 0 0 0 140 0"/>
  </g>
  <g stroke="#e2e8f0" stroke-width="2.5" fill="none">
    <ellipse cx="540" cy="280" rx="70" ry="22"/>
    <path d="M470 280 V360 a70 22 0 0 0 140 0 V280"/>
    <path d="M470 320 a70 22 0 0 0 140 0"/>
  </g>
  <g stroke="#e2e8f0" stroke-width="2.5" fill="none" stroke-linecap="round">
    <path d="M350 215 C 420 215, 420 280, 470 280"/>
  </g>
  <text x="60" y="450" font-family="ui-sans-serif, system-ui, -apple-system, Segoe UI, Roboto" font-size="22" font-weight="600" letter-spacing="3" fill="#94a3b8">DATA ENGINEERING</text>
</svg>
