<svg xmlns="http://www.w3.org/2000/svg" viewBox="0 0 800 500" role="img" aria-label="Data Visualization">
  <rect width="800" height="500" fill="#0f172a"/>
  <g stroke="#94a3b8" stroke-width="1.25" fill="none" opacity="0.18">
    <path d="M0 100 H800 M0 200 H800 M0 300 H800 M0 400 H800"/>
    <path d="M100 0 V500 M200 0 V500 M300 0 V500 M400 0 V500 M500 0 V500 M600 0 V500 M700 0 V500"/>
  </g>
  <g fill="#e2e8f0">
    <rect x="160" y="240" width="50" height="120" rx="3"/>
    <rect x="240" y="180" width="50" height="180" rx="3"/>
    <rect x="320" y="270" width="50" height="90" rx="3"/>
    <rect x="400" y="140" width="50" height="220" rx="3"/>
    <rect x="480" y="220" width="50" height="140" rx="3"/>
    <rect x="560" y="100" width="50" height="260" rx="3"/>
  </g>
  <line x1="100" y1="360" x2="700" y2="360" stroke="#94a3b8" stroke-width="2"/>
  <line x1="100" y1="80" x2="100" y2="360" stroke="#94a3b8" stroke-width="2"/>
  <text x="60" y="450" font-family="ui-sans-serif, system-ui, -apple-system, Segoe UI, Roboto" font-size="22" font-weight="600" letter-spacing="3" fill="#94a3b8">DATA VISUALIZATION</text>
</svg>
