<svg xmlns="http://www.w3.org/2000/svg" viewBox="0 0 800 500" role="img" aria-label="Optimization · Water Access in the DRC">
  <rect width="800" height="500" fill="#0f172a"/>
  <g stroke="#94a3b8" stroke-width="1.25" fill="none" opacity="0.18">
    <path d="M0 100 H800 M0 200 H800 M0 300 H800 M0 400 H800"/>
    <path d="M100 0 V500 M200 0 V500 M300 0 V500 M400 0 V500 M500 0 V500 M600 0 V500 M700 0 V500"/>
  </g>
  <path d="M180 130 L320 110 L460 150 L620 120 L660 280 L520 320 L360 290 L200 310 Z"
        fill="none" stroke="#e2e8f0" stroke-width="2.25" stroke-linejoin="round"/>
  <g fill="#94a3b8">
    <circle cx="240" cy="180" r="3"/>
    <circle cx="280" cy="200" r="3"/>
    <circle cx="320" cy="180" r="3"/>
    <circle cx="380" cy="170" r="3"/>
    <circle cx="420" cy="200" r="3"/>
    <circle cx="460" cy="220" r="3"/>
    <circle cx="500" cy="180" r="3"/>
    <circle cx="540" cy="240" r="3"/>
    <circle cx="580" cy="200" r="3"/>
    <circle cx="600" cy="260" r="3"/>
    <circle cx="280" cy="240" r="3"/>
    <circle cx="350" cy="240" r="3"/>
    <circle cx="430" cy="270" r="3"/>
  </g>
  <g fill="#e2e8f0">
    <circle cx="320" cy="180" r="9"/>
    <circle cx="460" cy="220" r="9"/>
    <circle cx="540" cy="240" r="9"/>
  </g>
  <g stroke="#e2e8f0" stroke-width="1.5" fill="none" stroke-dasharray="3 4" opacity="0.7">
    <circle cx="320" cy="180" r="40"/>
    <circle cx="460" cy="220" r="40"/>
    <circle cx="540" cy="240" r="40"/>
  </g>
  <text x="60" y="450" font-family="ui-sans-serif, system-ui, -apple-system, Segoe UI, Roboto" font-size="22" font-weight="600" letter-spacing="3" fill="#94a3b8">FACILITY LOCATION · DRC</text>
</svg>
