<svg xmlns="http://www.w3.org/2000/svg" viewBox="0 0 800 500" role="img" aria-label="ESPM 110 ArcGIS Mapping">
  <rect width="800" height="500" fill="#0f172a"/>
  <g stroke="#94a3b8" stroke-width="1.25" fill="none" opacity="0.18">
    <path d="M0 100 H800 M0 200 H800 M0 300 H800 M0 400 H800"/>
    <path d="M100 0 V500 M200 0 V500 M300 0 V500 M400 0 V500 M500 0 V500 M600 0 V500 M700 0 V500"/>
  </g>
  <g stroke="#e2e8f0" stroke-width="2" fill="none">
    <path d="M120 130 L260 110 L420 140 L580 115 L660 200 L640 290 L500 320 L340 305 L200 320 L140 240 Z" stroke-linejoin="round"/>
  </g>
  <g stroke="#94a3b8" stroke-width="1" fill="none" opacity="0.55">
    <path d="M150 170 C 240 200, 320 180, 400 220 S 580 240, 640 230"/>
    <path d="M180 250 C 260 280, 340 250, 440 270 S 600 290, 640 280"/>
    <path d="M200 300 C 280 320, 360 300, 440 320"/>
  </g>
  <g stroke="#94a3b8" stroke-width="1" fill="none" stroke-dasharray="4 4" opacity="0.55">
    <line x1="120" y1="200" x2="660" y2="200"/>
    <line x1="120" y1="250" x2="660" y2="250"/>
  </g>
  <g fill="#e2e8f0">
    <polygon points="320,170 330,170 325,160"/>
    <polygon points="460,210 470,210 465,200"/>
    <polygon points="560,260 570,260 565,250"/>
  </g>
  <g stroke="#e2e8f0" stroke-width="1.25" fill="none">
    <line x1="660" y1="350" x2="710" y2="350"/>
    <line x1="660" y1="345" x2="660" y2="355"/>
    <line x1="710" y1="345" x2="710" y2="355"/>
  </g>
  <text x="660" y="375" font-family="ui-sans-serif, system-ui, -apple-system, Segoe UI, Roboto" font-size="11" fill="#94a3b8">SCALE</text>
  <text x="60" y="450" font-family="ui-sans-serif, system-ui, -apple-system, Segoe UI, Roboto" font-size="22" font-weight="600" letter-spacing="3" fill="#94a3b8">ENVIRONMENTAL CARTOGRAPHY</text>
</svg>
