<svg xmlns="http://www.w3.org/2000/svg" viewBox="0 0 800 500" role="img" aria-label="F1 Race Calendar Optimization">
  <rect width="800" height="500" fill="#0f172a"/>
  <g stroke="#94a3b8" stroke-width="1.25" fill="none" opacity="0.18">
    <path d="M0 100 H800 M0 200 H800 M0 300 H800 M0 400 H800"/>
    <path d="M100 0 V500 M200 0 V500 M300 0 V500 M400 0 V500 M500 0 V500 M600 0 V500 M700 0 V500"/>
  </g>
  <ellipse cx="400" cy="220" rx="320" ry="120" fill="none" stroke="#94a3b8" stroke-width="1" stroke-dasharray="4 5" opacity="0.6"/>
  <ellipse cx="400" cy="220" rx="220" ry="80" fill="none" stroke="#94a3b8" stroke-width="1" stroke-dasharray="4 5" opacity="0.45"/>
  <path d="M120 240 Q 220 110, 360 130 Q 540 165, 640 220 Q 690 250, 600 290 Q 470 330, 320 300 Q 180 280, 120 240 Z"
        fill="none" stroke="#e2e8f0" stroke-width="2.5" stroke-linejoin="round"/>
  <g fill="#e2e8f0">
    <circle cx="160" cy="240" r="6"/>
    <circle cx="240" cy="160" r="6"/>
    <circle cx="360" cy="135" r="6"/>
    <circle cx="480" cy="155" r="6"/>
    <circle cx="600" cy="200" r="6"/>
    <circle cx="640" cy="260" r="6"/>
    <circle cx="540" cy="300" r="6"/>
    <circle cx="380" cy="305" r="6"/>
    <circle cx="240" cy="290" r="6"/>
  </g>
  <g stroke="#e2e8f0" stroke-width="1.5" fill="none" stroke-linecap="round">
    <path d="M160 240 L240 160 L360 135 L480 155 L600 200 L640 260 L540 300 L380 305 L240 290 Z"/>
  </g>
  <text x="60" y="450" font-family="ui-sans-serif, system-ui, -apple-system, Segoe UI, Roboto" font-size="22" font-weight="600" letter-spacing="3" fill="#94a3b8">ROUTING · MIN DISTANCE</text>
</svg>
