<svg xmlns="http://www.w3.org/2000/svg" viewBox="0 0 800 500" role="img" aria-label="Forecasting">
  <rect width="800" height="500" fill="#0f172a"/>
  <g stroke="#94a3b8" stroke-width="1.25" fill="none" opacity="0.18">
    <path d="M0 100 H800 M0 200 H800 M0 300 H800 M0 400 H800"/>
    <path d="M100 0 V500 M200 0 V500 M300 0 V500 M400 0 V500 M500 0 V500 M600 0 V500 M700 0 V500"/>
  </g>
  <g stroke="#e2e8f0" stroke-width="2.5" fill="none" stroke-linecap="round" stroke-linejoin="round">
    <path d="M80 320 L160 280 L240 290 L320 220 L400 250 L480 200"/>
  </g>
  <g stroke="#e2e8f0" stroke-width="2.5" fill="none" stroke-linecap="round" stroke-linejoin="round" stroke-dasharray="6 6">
    <path d="M480 200 L560 230 L640 180 L720 210"/>
  </g>
  <g stroke="#e2e8f0" stroke-width="1.25" fill="none" opacity="0.45">
    <path d="M480 170 L560 190 L640 130 L720 160"/>
    <path d="M480 230 L560 270 L640 230 L720 260"/>
  </g>
  <line x1="480" y1="80" x2="480" y2="400" stroke="#94a3b8" stroke-width="1" stroke-dasharray="3 5"/>
  <text x="60" y="450" font-family="ui-sans-serif, system-ui, -apple-system, Segoe UI, Roboto" font-size="22" font-weight="600" letter-spacing="3" fill="#94a3b8">FORECASTING</text>
</svg>
