<svg xmlns="http://www.w3.org/2000/svg" viewBox="0 0 800 500" role="img" aria-label="Machine Learning">
  <rect width="800" height="500" fill="#0f172a"/>
  <g stroke="#94a3b8" stroke-width="1.25" fill="none" opacity="0.18">
    <path d="M0 100 H800 M0 200 H800 M0 300 H800 M0 400 H800"/>
    <path d="M100 0 V500 M200 0 V500 M300 0 V500 M400 0 V500 M500 0 V500 M600 0 V500 M700 0 V500"/>
  </g>
  <g stroke="#e2e8f0" stroke-width="2.5" fill="none" stroke-linecap="round" stroke-linejoin="round">
    <path d="M120 380 C 220 380, 260 120, 360 120 S 500 380, 600 380 S 740 120, 740 120"/>
  </g>
  <g fill="#e2e8f0">
    <circle cx="180" cy="365" r="5"/>
    <circle cx="240" cy="280" r="5"/>
    <circle cx="300" cy="180" r="5"/>
    <circle cx="380" cy="155" r="5"/>
    <circle cx="460" cy="240" r="5"/>
    <circle cx="540" cy="340" r="5"/>
    <circle cx="620" cy="350" r="5"/>
    <circle cx="700" cy="200" r="5"/>
  </g>
  <text x="60" y="450" font-family="ui-sans-serif, system-ui, -apple-system, Segoe UI, Roboto" font-size="22" font-weight="600" letter-spacing="3" fill="#94a3b8">MACHINE LEARNING</text>
</svg>
