<svg xmlns="http://www.w3.org/2000/svg" viewBox="0 0 800 500" role="img" aria-label="Marketing Kaggle Competition">
  <rect width="800" height="500" fill="#0f172a"/>
  <g stroke="#94a3b8" stroke-width="1.25" fill="none" opacity="0.18">
    <path d="M0 100 H800 M0 200 H800 M0 300 H800 M0 400 H800"/>
    <path d="M100 0 V500 M200 0 V500 M300 0 V500 M400 0 V500 M500 0 V500 M600 0 V500 M700 0 V500"/>
  </g>
  <line x1="180" y1="370" x2="660" y2="370" stroke="#94a3b8" stroke-width="1.5"/>
  <g fill="#e2e8f0">
    <rect x="220" y="220" width="80" height="150" rx="3" opacity="0.55"/>
    <rect x="320" y="180" width="80" height="190" rx="3" opacity="0.7"/>
    <rect x="420" y="140" width="80" height="230" rx="3"/>
    <rect x="520" y="200" width="80" height="170" rx="3" opacity="0.7"/>
  </g>
  <g font-family="ui-sans-serif, system-ui, -apple-system, Segoe UI, Roboto" font-size="13" fill="#94a3b8" text-anchor="middle" letter-spacing="2">
    <text x="260" y="395">RANK</text>
    <text x="360" y="395">TIME</text>
    <text x="460" y="395">SPEND</text>
    <text x="560" y="395">CHURN</text>
  </g>
  <g stroke="#e2e8f0" stroke-width="1.5" fill="none" opacity="0.7" stroke-linecap="round">
    <path d="M260 220 L360 180 L460 140 L560 200"/>
  </g>
  <g fill="#e2e8f0">
    <circle cx="260" cy="220" r="4"/>
    <circle cx="360" cy="180" r="4"/>
    <circle cx="460" cy="140" r="6"/>
    <circle cx="560" cy="200" r="4"/>
  </g>
  <text x="60" y="450" font-family="ui-sans-serif, system-ui, -apple-system, Segoe UI, Roboto" font-size="22" font-weight="600" letter-spacing="3" fill="#94a3b8">FEATURE IMPORTANCE</text>
</svg>
