<svg xmlns="http://www.w3.org/2000/svg" viewBox="0 0 800 500" role="img" aria-label="Natural Language Processing">
  <rect width="800" height="500" fill="#0f172a"/>
  <g stroke="#94a3b8" stroke-width="1.25" fill="none" opacity="0.18">
    <path d="M0 100 H800 M0 200 H800 M0 300 H800 M0 400 H800"/>
    <path d="M100 0 V500 M200 0 V500 M300 0 V500 M400 0 V500 M500 0 V500 M600 0 V500 M700 0 V500"/>
  </g>
  <g fill="#e2e8f0" font-family="ui-monospace, Menlo, Consolas, monospace" font-size="22" letter-spacing="1">
    <text x="120" y="170" opacity="0.95">customer</text>
    <text x="320" y="170" opacity="0.85">service</text>
    <text x="500" y="170" opacity="0.6">slow</text>
    <text x="120" y="220" opacity="0.55">food</text>
    <text x="220" y="220" opacity="0.95">excellent</text>
    <text x="420" y="220" opacity="0.7">price</text>
    <text x="540" y="220" opacity="0.5">value</text>
    <text x="120" y="270" opacity="0.7">again</text>
    <text x="240" y="270" opacity="0.95">recommend</text>
    <text x="500" y="270" opacity="0.6">friendly</text>
    <text x="120" y="320" opacity="0.5">wait</text>
    <text x="220" y="320" opacity="0.85">staff</text>
    <text x="340" y="320" opacity="0.95">delicious</text>
    <text x="540" y="320" opacity="0.55">menu</text>
  </g>
  <text x="60" y="450" font-family="ui-sans-serif, system-ui, -apple-system, Segoe UI, Roboto" font-size="22" font-weight="600" letter-spacing="3" fill="#94a3b8">NLP / SENTIMENT</text>
</svg>
