<svg xmlns="http://www.w3.org/2000/svg" viewBox="0 0 800 500" role="img" aria-label="Optimization">
  <rect width="800" height="500" fill="#0f172a"/>
  <g stroke="#94a3b8" stroke-width="1.25" fill="none" opacity="0.18">
    <path d="M0 100 H800 M0 200 H800 M0 300 H800 M0 400 H800"/>
    <path d="M100 0 V500 M200 0 V500 M300 0 V500 M400 0 V500 M500 0 V500 M600 0 V500 M700 0 V500"/>
  </g>
  <g stroke="#e2e8f0" stroke-width="2.5" fill="none" stroke-linecap="round" stroke-linejoin="round">
    <line x1="220" y1="360" x2="380" y2="200"/>
    <line x1="380" y1="200" x2="540" y2="280"/>
    <line x1="540" y1="280" x2="640" y2="170"/>
    <line x1="220" y1="360" x2="540" y2="280"/>
    <line x1="380" y1="200" x2="640" y2="170"/>
  </g>
  <g fill="#e2e8f0">
    <circle cx="220" cy="360" r="9"/>
    <circle cx="380" cy="200" r="9"/>
    <circle cx="540" cy="280" r="9"/>
    <circle cx="640" cy="170" r="9"/>
  </g>
  <text x="60" y="450" font-family="ui-sans-serif, system-ui, -apple-system, Segoe UI, Roboto" font-size="22" font-weight="600" letter-spacing="3" fill="#94a3b8">OPTIMIZATION</text>
</svg>
