<svg xmlns="http://www.w3.org/2000/svg" viewBox="0 0 800 500" role="img" aria-label="Product Analytics">
  <rect width="800" height="500" fill="#0f172a"/>
  <g stroke="#94a3b8" stroke-width="1.25" fill="none" opacity="0.18">
    <path d="M0 100 H800 M0 200 H800 M0 300 H800 M0 400 H800"/>
    <path d="M100 0 V500 M200 0 V500 M300 0 V500 M400 0 V500 M500 0 V500 M600 0 V500 M700 0 V500"/>
  </g>
  <g fill="none" stroke="#e2e8f0" stroke-width="2.5">
    <path d="M180 360 L260 360 L260 280 L340 280 L340 220 L420 220 L420 170 L500 170 L500 130 L580 130"/>
  </g>
  <g fill="#e2e8f0">
    <circle cx="180" cy="360" r="6"/>
    <circle cx="260" cy="280" r="6"/>
    <circle cx="340" cy="220" r="6"/>
    <circle cx="420" cy="170" r="6"/>
    <circle cx="500" cy="130" r="6"/>
    <circle cx="580" cy="130" r="6"/>
  </g>
  <g font-family="ui-sans-serif, system-ui, -apple-system, Segoe UI, Roboto" font-size="14" fill="#94a3b8">
    <text x="170" y="385">Visit</text>
    <text x="245" y="305">Browse</text>
    <text x="325" y="245">Cart</text>
    <text x="405" y="195">Checkout</text>
    <text x="480" y="155">Pay</text>
    <text x="565" y="155">Repeat</text>
  </g>
  <text x="60" y="450" font-family="ui-sans-serif, system-ui, -apple-system, Segoe UI, Roboto" font-size="22" font-weight="600" letter-spacing="3" fill="#94a3b8">PRODUCT ANALYTICS</text>
</svg>
