<svg xmlns="http://www.w3.org/2000/svg" viewBox="0 0 800 500" role="img" aria-label="Mean Reversion + Momentum Trading">
  <rect width="800" height="500" fill="#0f172a"/>
  <g stroke="#94a3b8" stroke-width="1.25" fill="none" opacity="0.18">
    <path d="M0 100 H800 M0 200 H800 M0 300 H800 M0 400 H800"/>
    <path d="M100 0 V500 M200 0 V500 M300 0 V500 M400 0 V500 M500 0 V500 M600 0 V500 M700 0 V500"/>
  </g>
  <line x1="80" y1="350" x2="720" y2="350" stroke="#94a3b8" stroke-width="1.5"/>
  <line x1="80" y1="100" x2="80" y2="350" stroke="#94a3b8" stroke-width="1.5"/>
  <g stroke="#e2e8f0" stroke-width="1.6">
    <line x1="120" y1="180" x2="120" y2="280"/>
    <rect x="110" y="200" width="20" height="50" fill="#e2e8f0" opacity="0.6"/>
    <line x1="170" y1="220" x2="170" y2="320"/>
    <rect x="160" y="240" width="20" height="60" fill="#e2e8f0" opacity="0.6"/>
    <line x1="220" y1="160" x2="220" y2="270"/>
    <rect x="210" y="180" width="20" height="50" fill="#e2e8f0"/>
    <line x1="270" y1="200" x2="270" y2="320"/>
    <rect x="260" y="230" width="20" height="60" fill="#e2e8f0" opacity="0.6"/>
    <line x1="320" y1="140" x2="320" y2="280"/>
    <rect x="310" y="170" width="20" height="80" fill="#e2e8f0"/>
    <line x1="370" y1="180" x2="370" y2="310"/>
    <rect x="360" y="200" width="20" height="80" fill="#e2e8f0" opacity="0.6"/>
    <line x1="420" y1="120" x2="420" y2="240"/>
    <rect x="410" y="140" width="20" height="60" fill="#e2e8f0"/>
    <line x1="470" y1="160" x2="470" y2="290"/>
    <rect x="460" y="180" width="20" height="80" fill="#e2e8f0"/>
    <line x1="520" y1="130" x2="520" y2="240"/>
    <rect x="510" y="150" width="20" height="60" fill="#e2e8f0"/>
    <line x1="570" y1="170" x2="570" y2="280"/>
    <rect x="560" y="190" width="20" height="50" fill="#e2e8f0" opacity="0.6"/>
    <line x1="620" y1="110" x2="620" y2="220"/>
    <rect x="610" y="130" width="20" height="60" fill="#e2e8f0"/>
    <line x1="670" y1="150" x2="670" y2="260"/>
    <rect x="660" y="170" width="20" height="50" fill="#e2e8f0"/>
  </g>
  <path d="M120 240 L170 280 L220 200 L270 270 L320 200 L370 240 L420 170 L470 220 L520 180 L570 220 L620 160 L670 195"
        fill="none" stroke="#e2e8f0" stroke-width="1.75" stroke-linecap="round" stroke-dasharray="5 4"/>
  <text x="60" y="450" font-family="ui-sans-serif, system-ui, -apple-system, Segoe UI, Roboto" font-size="22" font-weight="600" letter-spacing="3" fill="#94a3b8">MARKET BACKTEST</text>
</svg>
