<svg xmlns="http://www.w3.org/2000/svg" viewBox="0 0 800 500" role="img" aria-label="Voltage Discharge · Hydrogen Electrolyzers">
  <rect width="800" height="500" fill="#0f172a"/>
  <g stroke="#94a3b8" stroke-width="1.25" fill="none" opacity="0.18">
    <path d="M0 100 H800 M0 200 H800 M0 300 H800 M0 400 H800"/>
    <path d="M100 0 V500 M200 0 V500 M300 0 V500 M400 0 V500 M500 0 V500 M600 0 V500 M700 0 V500"/>
  </g>
  <line x1="80" y1="350" x2="720" y2="350" stroke="#94a3b8" stroke-width="1.5"/>
  <line x1="80" y1="100" x2="80" y2="350" stroke="#94a3b8" stroke-width="1.5"/>
  <text x="60" y="130" font-family="ui-sans-serif, system-ui, -apple-system, Segoe UI, Roboto" font-size="11" fill="#94a3b8" letter-spacing="2" text-anchor="end">V</text>
  <text x="700" y="375" font-family="ui-sans-serif, system-ui, -apple-system, Segoe UI, Roboto" font-size="11" fill="#94a3b8" letter-spacing="2">t</text>
  <path d="M80 160
           Q 110 160, 130 165 Q 160 175, 200 195 Q 240 220, 280 245
           Q 320 270, 360 285 Q 400 295, 440 300 Q 480 305, 520 312
           Q 560 318, 600 325 Q 640 330, 720 340"
        fill="none" stroke="#e2e8f0" stroke-width="2.5"/>
  <path d="M80 145 Q 130 175 200 215 Q 280 250 360 280 Q 440 295 520 305 Q 600 312 720 320"
        fill="none" stroke="#94a3b8" stroke-width="1" stroke-dasharray="3 4" opacity="0.7"/>
  <path d="M80 175 Q 130 195 200 230 Q 280 260 360 285 Q 440 300 520 318 Q 600 330 720 350"
        fill="none" stroke="#94a3b8" stroke-width="1" stroke-dasharray="3 4" opacity="0.7"/>
  <g fill="#e2e8f0">
    <circle cx="200" cy="195" r="3"/>
    <circle cx="280" cy="245" r="3"/>
    <circle cx="360" cy="285" r="3"/>
    <circle cx="440" cy="300" r="3"/>
    <circle cx="520" cy="312" r="3"/>
    <circle cx="600" cy="325" r="3"/>
  </g>
  <text x="60" y="450" font-family="ui-sans-serif, system-ui, -apple-system, Segoe UI, Roboto" font-size="22" font-weight="600" letter-spacing="3" fill="#94a3b8">VOLTAGE DECAY · ELECTROLYZER</text>
</svg>
