<svg xmlns="http://www.w3.org/2000/svg" viewBox="0 0 800 500" role="img" aria-label="Yelp Deep Learning · Sentiment + Star Rating">
  <rect width="800" height="500" fill="#0f172a"/>
  <g stroke="#94a3b8" stroke-width="1.25" fill="none" opacity="0.18">
    <path d="M0 100 H800 M0 200 H800 M0 300 H800 M0 400 H800"/>
    <path d="M100 0 V500 M200 0 V500 M300 0 V500 M400 0 V500 M500 0 V500 M600 0 V500 M700 0 V500"/>
  </g>
  <g fill="#e2e8f0">
    <circle cx="180" cy="180" r="9"/>
    <circle cx="180" cy="240" r="9"/>
    <circle cx="180" cy="300" r="9"/>
  </g>
  <g fill="#e2e8f0">
    <circle cx="380" cy="160" r="9"/>
    <circle cx="380" cy="210" r="9"/>
    <circle cx="380" cy="260" r="9"/>
    <circle cx="380" cy="310" r="9"/>
  </g>
  <g fill="#e2e8f0">
    <circle cx="580" cy="200" r="9"/>
    <circle cx="580" cy="250" r="9"/>
    <circle cx="580" cy="300" r="9"/>
  </g>
  <g stroke="#94a3b8" stroke-width="1.25" fill="none" opacity="0.55">
    <line x1="180" y1="180" x2="380" y2="160"/>
    <line x1="180" y1="180" x2="380" y2="210"/>
    <line x1="180" y1="180" x2="380" y2="260"/>
    <line x1="180" y1="180" x2="380" y2="310"/>
    <line x1="180" y1="240" x2="380" y2="160"/>
    <line x1="180" y1="240" x2="380" y2="210"/>
    <line x1="180" y1="240" x2="380" y2="260"/>
    <line x1="180" y1="240" x2="380" y2="310"/>
    <line x1="180" y1="300" x2="380" y2="160"/>
    <line x1="180" y1="300" x2="380" y2="210"/>
    <line x1="180" y1="300" x2="380" y2="260"/>
    <line x1="180" y1="300" x2="380" y2="310"/>
    <line x1="380" y1="160" x2="580" y2="200"/>
    <line x1="380" y1="160" x2="580" y2="250"/>
    <line x1="380" y1="160" x2="580" y2="300"/>
    <line x1="380" y1="210" x2="580" y2="200"/>
    <line x1="380" y1="210" x2="580" y2="250"/>
    <line x1="380" y1="210" x2="580" y2="300"/>
    <line x1="380" y1="260" x2="580" y2="200"/>
    <line x1="380" y1="260" x2="580" y2="250"/>
    <line x1="380" y1="260" x2="580" y2="300"/>
    <line x1="380" y1="310" x2="580" y2="200"/>
    <line x1="380" y1="310" x2="580" y2="250"/>
    <line x1="380" y1="310" x2="580" y2="300"/>
  </g>
  <g font-family="ui-monospace, Menlo, Consolas, monospace" font-size="14" fill="#94a3b8" text-anchor="end">
    <text x="160" y="184">"food"</text>
    <text x="160" y="244">"slow"</text>
    <text x="160" y="304">"great"</text>
  </g>
  <g font-family="ui-monospace, Menlo, Consolas, monospace" font-size="16" fill="#e2e8f0">
    <text x="600" y="206"> 5</text>
    <text x="600" y="256"> 3</text>
    <text x="600" y="306"> 1</text>
  </g>
  <text x="60" y="450" font-family="ui-sans-serif, system-ui, -apple-system, Segoe UI, Roboto" font-size="22" font-weight="600" letter-spacing="3" fill="#94a3b8">TEXT ’ STAR RATING</text>
</svg>
