<svg xmlns="http://www.w3.org/2000/svg" viewBox="0 0 800 500" role="img" aria-label="ArcGIS Map">
  <rect width="800" height="500" fill="#0f172a"/>
  <g stroke="#94a3b8" stroke-width="1.25" fill="none" opacity="0.18">
    <path d="M0 100 H800 M0 200 H800 M0 300 H800 M0 400 H800"/>
    <path d="M100 0 V500 M200 0 V500 M300 0 V500 M400 0 V500 M500 0 V500 M600 0 V500 M700 0 V500"/>
  </g>
  <g stroke="#e2e8f0" stroke-width="2" fill="none" stroke-linejoin="round">
    <path d="M140 140 L280 110 L440 140 L600 115 L680 230 L640 320 L500 340 L320 320 L200 330 L140 240 Z"/>
  </g>
  <g stroke="#94a3b8" stroke-width="1" fill="none" opacity="0.6">
    <path d="M180 200 C 260 230, 340 200, 440 240 S 580 260, 660 250"/>
    <path d="M200 270 C 280 300, 360 270, 440 290 S 600 300, 660 290"/>
  </g>
  <g stroke="#94a3b8" stroke-width="1" fill="none" stroke-dasharray="4 4" opacity="0.5">
    <line x1="140" y1="220" x2="680" y2="220"/>
    <line x1="140" y1="270" x2="680" y2="270"/>
  </g>
  <g fill="#e2e8f0">
    <circle cx="320" cy="190" r="6"/>
    <circle cx="460" cy="220" r="6"/>
    <circle cx="540" cy="270" r="6"/>
  </g>
  <g stroke="#e2e8f0" stroke-width="1.25" fill="none">
    <line x1="600" y1="365" x2="660" y2="365"/>
    <line x1="600" y1="360" x2="600" y2="370"/>
    <line x1="660" y1="360" x2="660" y2="370"/>
  </g>
  <text x="600" y="385" font-family="ui-sans-serif, system-ui, -apple-system, Segoe UI, Roboto" font-size="11" fill="#94a3b8">SCALE</text>
  <text x="60" y="450" font-family="ui-sans-serif, system-ui, -apple-system, Segoe UI, Roboto" font-size="22" font-weight="600" letter-spacing="3" fill="#94a3b8">ARCGIS · CARTOGRAPHY</text>
</svg>
